# xmcd
#
# Track frame offsets:
# 150
# 18780
# 31368
# 48802
# 67802
# 83755
# 96272
# 112818
# 125915
# 142258
# 155617
# 169816
# 190367
# 205568
# 222483
# 235618
# 246484
#
# Disc length: 3506 seconds
#
#
# Revision: 1
# Processed by: cddbd v1.5.1PL0 Copyright (c) Steve Scherf et al.
# Submitted via: FreeRIP 2.941 
#
DISCID=ea0db011
DTITLE=CANARIOS DO REINO VOL 9 - CANARIOS DO REINO VOL 9
DYEAR=2004
DGENRE=Forró
TTITLE0=carro de som
TTITLE1=todo bebo é bonequeiro
TTITLE2=sua obsessão
TTITLE3=arriégua
TTITLE4=ta vendo que eu nao vou
TTITLE5=arranjar uma mulher
TTITLE6=bara bara coré coré
TTITLE7=pense bem
TTITLE8=não dá pra entender
TTITLE9=libere as quengas
TTITLE10=amor zerado
TTITLE11=sou louco por ela
TTITLE12=resposta da patricinha
TTITLE13=não e brinquedo nao
TTITLE14=cercado de mulher
TTITLE15=pelo o rabinho
TTITLE16=é saudade de novo
EXTD=
EXTT0=
EXTT1=
EXTT2=
EXTT3=
EXTT4=
EXTT5=
EXTT6=
EXTT7=
EXTT8=
EXTT9=
EXTT10=
EXTT11=
EXTT12=
EXTT13=
EXTT14=
EXTT15=
EXTT16=
PLAYORDER=
